<svg width="145" height="145" viewBox="0 0 145 145" fill="none" xmlns="http://www.w3.org/2000/svg">
<path d="M113.419 98.3665C115.287 99.5485 115.856 102.032 114.535 103.804C109.984 109.912 104.148 114.97 97.4204 118.61C89.5171 122.887 80.6484 125.063 71.6633 124.93C62.6781 124.798 53.8774 122.362 46.1034 117.854C38.3295 113.347 31.8425 106.92 27.2636 99.188C22.6846 91.4561 20.1669 82.6782 19.9515 73.6947C19.736 64.7112 21.83 55.8228 26.0331 47.8802C30.2362 39.9377 36.4075 33.2069 43.9565 28.3322C50.3821 24.1829 57.6227 21.4966 65.1662 20.4418C67.3556 20.1357 69.26 21.8277 69.3985 24.034C69.537 26.2403 67.8559 28.1227 65.6709 28.4589C59.4953 29.4089 53.5734 31.6517 48.2993 35.0574C41.9014 39.1888 36.6711 44.8932 33.1089 51.6246C29.5468 58.3561 27.772 65.8891 27.9546 73.5028C28.1372 81.1165 30.271 88.5558 34.1517 95.1087C38.0325 101.662 43.5303 107.109 50.1188 110.929C56.7074 114.749 64.1661 116.814 71.7811 116.926C79.3962 117.038 86.9125 115.194 93.6107 111.569C99.1324 108.582 103.946 104.467 107.747 99.5082C109.092 97.7538 111.551 97.1845 113.419 98.3665Z" fill="#212121"/>
<path d="M74.6818 28.4759C75.1342 23.8644 79.2693 20.4271 83.75 21.6076C88.7851 22.9341 93.6101 25.0063 98.0606 27.7685C104.896 32.0108 110.664 37.767 114.921 44.5928C119.179 51.4186 121.81 59.1314 122.613 67.1357C123.136 72.3476 122.874 77.5922 121.85 82.6975C120.939 87.2406 116.033 89.442 111.693 87.8196C107.353 86.1973 105.259 81.3506 105.826 76.7519C106.151 74.1249 106.183 71.4614 105.917 68.8104C105.371 63.3643 103.58 58.1166 100.684 53.4724C97.7874 48.8282 93.8624 44.9118 89.2119 42.0254C86.9482 40.6204 84.542 39.4778 82.0402 38.6134C77.6606 37.1002 74.2294 33.0873 74.6818 28.4759Z" fill="#DEDEDE"/>
<path d="M87.8773 84.6906C92.5714 87.6004 94.0876 93.9425 89.8293 97.4595C88.3961 98.6431 86.8532 99.6986 85.2174 100.61C80.6523 103.153 75.5141 104.489 70.289 104.492C65.064 104.495 59.9249 103.164 55.3581 100.626C50.7914 98.0876 46.948 94.4258 44.1916 89.987C41.4353 85.5482 39.8573 80.4792 39.6068 75.2597C39.3564 70.0402 40.4418 64.8428 42.7604 60.1594C45.079 55.476 48.5541 51.4616 52.8568 48.4959C54.3978 47.4338 56.0266 46.5188 57.7217 45.7588C62.762 43.499 67.776 47.6699 68.303 53.1684L69.0505 60.9662C69.2789 63.3497 67.4062 65.392 65.4347 66.7509C64.2383 67.5755 63.2721 68.6917 62.6274 69.9939C61.9827 71.2961 61.6809 72.7413 61.7506 74.1925C61.8202 75.6438 62.259 77.0532 63.0254 78.2874C63.7917 79.5216 64.8604 80.5398 66.1302 81.2455C67.4 81.9513 68.8289 82.3213 70.2817 82.3205C71.7345 82.3197 73.1632 81.9482 74.4325 81.2411C76.5243 80.0758 79.1852 79.3024 81.2204 80.564L87.8773 84.6906Z" fill="white"/>
<path fill-rule="evenodd" clip-rule="evenodd" d="M73.1983 56.2389C75.0604 49.8646 81.9805 46.0713 87.2051 50.1705C90.2171 52.5338 92.8006 55.4405 94.8027 58.7711C96.7858 62.0699 98.1275 65.6666 98.7959 69.3766C99.9744 75.9183 93.3319 80.2052 86.8359 78.7965L85.2158 78.4449L85.2315 78.3903C84.6414 78.227 84.0901 77.9472 83.6094 77.568C83.1286 77.1886 82.7277 76.7174 82.4317 76.1813C82.1356 75.6451 81.9497 75.0549 81.8848 74.4459C81.8198 73.8369 81.8774 73.2209 82.0537 72.6344L81.9756 72.611C81.9899 72.4093 82 72.2059 82 72.0006C82 68.3653 79.7176 65.2642 76.5078 64.0494L76.5098 64.0348C76.4905 64.0329 76.4714 64.0291 76.4522 64.027C76.0046 63.8612 75.539 63.7341 75.0596 63.6451C74.9617 63.6008 74.8643 63.5548 74.7695 63.5035C74.2311 63.2122 73.7565 62.8158 73.3731 62.3385C72.9895 61.861 72.7044 61.3112 72.5361 60.7223C72.3798 60.175 72.3278 59.6038 72.3799 59.0377L73.1983 56.2389Z" fill="#353535"/>
</svg>
