<svg width="49" height="48" viewBox="0 0 49 48" fill="none" xmlns="http://www.w3.org/2000/svg">
<path d="M15.8711 1.46478C21.571 -0.593905 27.8511 -0.478992 33.4688 1.78704C39.0863 4.05308 43.6323 8.30525 46.208 13.7021C48.7837 19.099 49.2011 25.2481 47.3779 30.9326C45.5547 36.6169 41.6238 41.4232 36.3623 44.4003C31.1007 47.3775 24.8917 48.3083 18.9639 47.0097C14.3304 45.9946 10.1324 43.675 6.8623 40.3749C5.35135 38.8501 5.80903 36.3892 7.58789 35.1738C9.32092 33.9896 11.6554 34.4513 13.2246 35.8339C15.3158 37.6764 17.8692 38.9789 20.6533 39.5888C24.6864 40.4722 28.9105 39.8389 32.4902 37.8134C36.0701 35.7878 38.7449 32.517 39.9854 28.6493C41.2257 24.7818 40.9418 20.5985 39.1895 16.9267C37.437 13.2547 34.3436 10.362 30.5215 8.82025C26.6994 7.2785 22.4269 7.1999 18.5488 8.60052C14.6708 10.0012 11.4691 12.7786 9.57812 16.3837C8.30021 18.8201 7.68422 21.5149 7.75586 24.2128C7.81304 26.3645 6.63479 28.5279 4.55273 29.0878C2.50715 29.6378 0.370484 28.4412 0.139648 26.3398C-0.365456 21.7408 0.504643 17.067 2.6875 12.9052C5.46674 7.60645 10.1712 3.52348 15.8711 1.46478ZM19.748 13.1591C21.8046 12.2471 23.8348 13.9172 24.0879 16.1161L24.3945 18.7841C24.4952 19.6605 23.787 20.421 23.0391 20.913C22.584 21.2123 22.2196 21.6216 21.9795 22.1015C21.7394 22.5813 21.6317 23.1159 21.667 23.6552C21.7023 24.1945 21.8789 24.7208 22.1807 25.1835C22.4826 25.6464 22.9003 26.0312 23.3926 26.3007C23.8847 26.57 24.4359 26.7154 24.9941 26.7236C25.5526 26.7317 26.1002 26.6019 26.584 26.3466C27.3757 25.9289 28.3746 25.6398 29.1338 26.1015L31.415 27.4892C33.4341 28.7173 34.0721 31.4282 32.1357 32.8076C31.7259 33.0995 31.2942 33.3657 30.8438 33.6035C29.1039 34.5214 27.1364 34.9882 25.1279 34.9589C23.1194 34.9296 21.1357 34.4056 19.3652 33.4365C17.5947 32.4673 16.0956 31.0844 15.0098 29.4199C13.9241 27.7554 13.2873 25.8637 13.1602 23.9238C13.033 21.9837 13.4195 20.059 14.2832 18.3329C15.1469 16.607 16.4592 15.136 18.0957 14.0595C18.6205 13.7143 19.1736 13.4139 19.748 13.1591Z" fill="white" fill-opacity="0.8"/>
</svg>
