<svg width="160" height="159" viewBox="0 0 160 159" fill="none" xmlns="http://www.w3.org/2000/svg">
<path d="M18.9145 96.1391C13.6544 97.5719 8.15752 94.4837 7.43529 89.0836C5.47783 74.4479 8.04072 59.4796 14.9105 46.2136C23.3007 30.0115 37.5042 17.5285 54.7115 11.2337C71.9188 4.93885 90.8768 5.29064 107.836 12.2195C124.794 19.1483 138.519 32.1496 146.295 48.6517C154.07 65.1538 155.331 83.9548 149.827 101.336C144.323 118.717 132.455 133.413 116.571 142.516C100.687 151.62 81.9436 154.468 64.0481 150.497C49.4147 147.25 36.2198 139.637 26.1659 128.794C22.4429 124.778 23.5984 118.534 28.1064 115.414C32.5759 112.321 38.6455 113.496 42.5245 117.295C49.603 124.226 58.5393 129.105 68.3648 131.285C81.4177 134.181 95.089 132.104 106.675 125.464C118.26 118.824 126.917 108.105 130.931 95.4272C134.946 82.7493 134.026 69.036 128.355 56.9994C122.683 44.9629 112.673 35.4799 100.303 30.426C87.9335 25.3722 74.1056 25.1156 61.5547 29.707C49.0038 34.2984 38.6439 43.4034 32.5241 55.2211C27.94 64.0733 25.9851 73.9646 26.7786 83.7587C27.2212 89.221 24.2053 94.6979 18.9145 96.1391Z" fill="#EFEFEF"/>
<path d="M116.602 64.2163C117.106 64.1471 117.373 64.7909 116.973 65.1073L93.1533 83.915C93.0417 84.0032 92.9722 84.1347 92.9622 84.2768L91.2423 108.79C91.2135 109.202 90.7313 109.407 90.4205 109.141L71.9059 93.2574C71.7986 93.1654 71.6572 93.1238 71.5169 93.1431L41.5894 97.2586C41.0859 97.3279 40.8183 96.6841 41.219 96.3677L65.0383 77.5599C65.15 77.4718 65.2194 77.3403 65.2294 77.1982L66.9493 52.6848C66.9782 52.2733 67.4603 52.0676 67.7711 52.3343L86.2857 68.2175C86.393 68.3096 86.5344 68.3512 86.6747 68.3319L116.602 64.2163Z" fill="#EFEFEF"/>
</svg>
